<svg width="46" height="60" viewBox="0 0 46 60" fill="none" xmlns="http://www.w3.org/2000/svg">
<path d="M22.9991 0.9C11.3172 0.9 1.81071 10.4065 1.81071 22.0896C1.81071 25.1415 2.43482 28.047 3.66116 30.7323C9.12552 42.6895 19.6362 55.3636 22.75 58.9851C22.8123 59.0574 22.9035 59.0994 22.9997 59.0994C23.0956 59.0994 23.1866 59.0576 23.2489 58.9857C26.361 55.3653 36.8725 42.6911 42.3389 30.732C43.5657 28.0469 44.1893 25.1416 44.1893 22.0897L22.9991 0.9ZM22.9991 0.9C34.6815 0.9 44.188 10.4064 44.1893 22.0896L22.9991 0.9ZM22.9991 34.463C16.1755 34.463 10.6251 28.9125 10.6251 22.089C10.6251 15.2648 16.1755 9.71435 22.9991 9.71435C29.8226 9.71435 35.373 15.2648 35.3731 22.0889L22.9991 34.463ZM22.9991 34.463C29.8231 34.463 35.3737 28.9126 35.3731 22.089L22.9991 34.463Z" stroke="white" stroke-width="1.8"/>
</svg>
