<svg width="46" height="60" viewBox="0 0 46 60" fill="none" xmlns="http://www.w3.org/2000/svg">
<path d="M22.9991 0C10.8201 0 0.910706 9.90943 0.910706 22.0896C0.910706 25.2666 1.56098 28.3 2.84248 31.1062C8.36519 43.1912 18.9538 55.9504 22.0682 59.5726C22.3015 59.8434 22.6417 59.9994 22.9997 59.9994C23.3577 59.9994 23.6978 59.8434 23.9312 59.5726C27.0444 55.951 37.6329 43.1924 43.1575 31.1062C44.4396 28.3 45.0893 25.2666 45.0893 22.0896C45.088 9.90943 35.1786 0 22.9991 0ZM22.9991 33.563C16.6726 33.563 11.5251 28.4155 11.5251 22.089C11.5251 15.7619 16.6726 10.6144 22.9991 10.6144C29.3256 10.6144 34.4731 15.7619 34.4731 22.089C34.4737 28.4155 29.3262 33.563 22.9991 33.563Z" fill="white"/>
</svg>
